<?xml version="1.0" standalone="no"?><!DOCTYPE svg PUBLIC "-//W3C//DTD SVG 1.1//EN" "http://www.w3.org/Graphics/SVG/1.1/DTD/svg11.dtd"><svg t="1554894121222" class="icon" style="" viewBox="0 0 1024 1024" version="1.1" xmlns="http://www.w3.org/2000/svg" p-id="2263" xmlns:xlink="http://www.w3.org/1999/xlink" width="200" height="200"><defs><style type="text/css"></style></defs><path d="M512 93.866667c-230.4 0-418.133333 187.733333-418.133333 418.133333s187.733333 418.133333 418.133333 418.133333 418.133333-187.733333 418.133333-418.133333-187.733333-418.133333-418.133333-418.133333zM512 0c285.866667 0 512 226.133333 512 512s-226.133333 512-512 512S0 797.866667 0 512 226.133333 0 512 0z m162.133333 746.666667c-12.8 0-25.6-4.266667-34.133333-17.066667l-162.133333-187.733333c-8.533333-8.533333-12.8-17.066667-12.8-29.866667V277.333333c0-25.6 21.333333-46.933333 46.933333-46.933333s46.933333 21.333333 46.933333 46.933333v213.333334l149.333334 170.666666c17.066667 17.066667 12.8 46.933333-4.266667 64-8.533333 12.8-17.066667 21.333333-29.866667 21.333334z" fill="#999999" p-id="2264"></path></svg>