<?xml version="1.0" standalone="no"?><!DOCTYPE svg PUBLIC "-//W3C//DTD SVG 1.1//EN" "http://www.w3.org/Graphics/SVG/1.1/DTD/svg11.dtd"><svg t="1556007892911" class="icon" style="" viewBox="0 0 1024 1024" version="1.1" xmlns="http://www.w3.org/2000/svg" p-id="586" xmlns:xlink="http://www.w3.org/1999/xlink" width="200" height="200"><defs><style type="text/css"></style></defs><path d="M458.567929 397.778101c-94.685768 0-171.681835 76.999679-171.681835 171.683641 0 94.640623 76.997873 171.638496 171.681835 171.638496 94.640623 0 171.681835-77.041212 171.681835-171.638496C630.206425 474.821119 553.208552 397.778101 458.567929 397.778101L458.567929 397.778101zM458.567929 397.778101" p-id="587" fill="#5ad5fa"></path><path d="M850.569248 3.611617 170.310314 3.611617C76.390209 3.611617 0.242872 79.758954 0.242872 173.679059l0 680.258934c0 93.914688 76.145531 170.062025 170.067442 170.062025l680.258934 0c93.914688 0 170.062025-76.147337 170.062025-170.062025L1020.631273 173.679059C1020.631273 79.758954 944.483936 3.611617 850.569248 3.611617L850.569248 3.611617zM815.278331 441.359485l-81.29028 0 0-92.173888-71.387226 71.426953c30.613873 41.791828 48.850734 93.152637 48.850734 148.849191 0 139.453569-113.430061 252.92697-252.92697 252.92697-139.453569 0-252.928776-113.475207-252.928776-252.92697 0-139.496908 113.475207-252.972115 252.928776-252.972115 54.510138 0 104.886781 17.516343 146.259662 46.938383l76.911194-76.909388-103.530619 0 0-81.295697 237.070164 0 0 236.136561L815.278331 441.359485zM815.278331 441.359485" p-id="588" fill="#5ad5fa"></path></svg>