<?xml version="1.0" standalone="no"?><!DOCTYPE svg PUBLIC "-//W3C//DTD SVG 1.1//EN" "http://www.w3.org/Graphics/SVG/1.1/DTD/svg11.dtd"><svg t="1556007991340" class="icon" style="" viewBox="0 0 1025 1024" version="1.1" xmlns="http://www.w3.org/2000/svg" p-id="574" xmlns:xlink="http://www.w3.org/1999/xlink" width="200.1953125" height="200"><defs><style type="text/css"></style></defs><path d="M578.337169 311.963982c-34.833417 0-69.154577 14.343172-93.742872 39.443722-51.737869 52.250125-51.737869 137.284642 0 190.047023 25.10055 25.612806 58.397199 39.443722 93.742872 39.443722s68.642321-13.830915 93.742871-39.443722c51.737869-52.250125 51.737869-137.284642 0-190.047023-24.588294-25.10055-58.397199-39.443722-93.742871-39.443722z" fill="#ff4d94" p-id="575"></path><path d="M787.849925 0h-550.675338c-130.113057 0-236.662331 106.549275-236.662331 236.662331v550.675338c0 130.113057 106.549275 236.662331 236.662331 236.662331h550.675338C917.962981 1024 1024.512256 917.450725 1024.512256 787.337669V236.662331c0-130.113057-107.061531-236.662331-236.662331-236.662331zM727.403702 596.266133c-39.955978 40.468234-92.718359 62.495248-148.554277 62.495248-41.492746 0-81.448724-12.294147-116.282141-35.345673l-2.561281-1.536769-38.41921 38.931466 63.51976 64.032016c15.367684 15.367684 15.367684 40.468234 0 56.348174-7.171586 7.171586-17.416708 11.781891-27.661831 11.781891s-20.490245-4.098049-27.661831-11.781891l-63.519759-64.032016-63.51976 64.032016c-7.171586 7.683842-16.904452 11.781891-27.661831 11.781891-10.245123 0-20.490245-4.098049-27.661831-11.781891-15.367684-15.367684-15.367684-40.468234 0-56.348174l63.007504-64.032016-63.007504-64.032016c-15.367684-15.367684-15.367684-40.468234 0-56.348174 7.171586-7.171586 17.416708-11.781891 27.661831-11.781891s20.490245 4.098049 27.661831 11.781891l63.51976 64.032016 38.419209-38.931466-1.536768-2.56128c-54.811406-84.010005-43.541771-197.218609 26.637318-268.934467 38.931466-39.955978 93.230615-62.495248 149.066534-62.495248s109.622811 22.53927 148.554277 62.495248c81.96098 83.497749 81.96098 218.733367 0 302.231115z" fill="#ff4d94" p-id="576"></path></svg>